<svg width="16" height="16" viewBox="0 0 16 16" fill="none" xmlns="http://www.w3.org/2000/svg">
<path opacity="1" fill-rule="evenodd" clip-rule="evenodd" d="M8 16C12.4183 16 16 12.4183 16 8C16 3.58172 12.4183 0 8 0C3.58172 0 0 3.58172 0 8C0 12.4183 3.58172 16 8 16ZM8.8 12.3333C8.8 12.7015 8.50152 13 8.13333 13H8C7.63181 13 7.33333 12.7015 7.33333 12.3333V8.66667H3.66667C3.29848 8.66667 3 8.36819 3 8V7.86667C3 7.49848 3.29848 7.2 3.66667 7.2H7.33333V3.66667C7.33333 3.29848 7.63181 3 8 3H8.13333C8.50152 3 8.8 3.29848 8.8 3.66667V7.2H12.3333C12.7015 7.2 13 7.49848 13 7.86667V8C13 8.36819 12.7015 8.66667 12.3333 8.66667H8.8V12.3333Z" fill="white"/>
</svg>
